<svg width="1366" height="1522" viewBox="0 0 1366 1522" fill="none" xmlns="http://www.w3.org/2000/svg">
<g clip-path="url(#clip0_1_2)">
<rect width="1366" height="1522" fill="#F9F9F9"/>
<path d="M362 33C136 13.8 0.5 164 -39 241.5L-55 -169H875.5L1011.5 -7C889.167 14.3333 588 52.2 362 33Z" fill="#42139F"/>
<path d="M390.5 1541C109.7 1496.6 -9.5 1284.5 -34 1184V1541H390.5Z" fill="#42139F"/>
<path d="M1389 1394.32C1386.6 1486.72 1285.33 1526.82 1235 1535.32H1389C1390 1449.82 1391.4 1301.92 1389 1394.32Z" fill="#42139F"/>
<path d="M59 840.5C64.2 662.1 3.83333 491.167 -27 428V1253.5C1.66667 1180.5 59 995.7 59 840.5Z" fill="#42139F"/>
</g>
<defs>
<clipPath id="clip0_1_2">
<rect width="1366" height="1522" fill="white"/>
</clipPath>
</defs>
</svg>
