<svg width="1366" height="648" viewBox="0 0 1366 648" fill="none" xmlns="http://www.w3.org/2000/svg">
<g clip-path="url(#clip0_9_205)">
<rect width="1366" height="648" fill="#42139F"/>
<path d="M1375 167C1297 60.2 1067.5 68.8333 962.5 86.5V3H1375V167Z" fill="#2C0B6F"/>
<path d="M352.032 83.5C108.825 27.5 -23.3255 141.167 -59 205L-47.1085 -204H1399V205C1339.85 14.6 1088.96 44.6667 970.906 83.5C865.951 106.833 595.239 139.5 352.032 83.5Z" fill="#D9D9D9"/>
<path d="M362.5 57.5C127.3 1.5 -0.5 115.167 -35 179L-23.5 -230H1375V179C1317.8 -11.4 1075.17 18.6667 961 57.5C859.5 80.8333 597.7 113.5 362.5 57.5Z" fill="#F9F9F9"/>
<path d="M138 648C70.8 637.6 18 553 0 512V648H138Z" fill="#F9F9F9"/>
<path d="M1230 648C1296.23 637.6 1348.26 553 1366 512V648H1230Z" fill="#F9F9F9"/>
</g>
<defs>
<clipPath id="clip0_9_205">
<rect width="1366" height="648" fill="white"/>
</clipPath>
</defs>
</svg>
